<svg aria-hidden="true" style="position: absolute; width: 0; height: 0; overflow: hidden;" version="1.1" xmlns="http://www.w3.org/2000/svg" xmlns:xlink="http://www.w3.org/1999/xlink">
<defs>
<symbol id="cross" viewBox="0 0 32 32">
<path d="M23.734 10.304l-1.504-1.504-5.963 5.962-5.962-5.962-1.504 1.504 5.962 5.962-5.962 5.963 1.504 1.504 5.962-5.963 5.963 5.963 1.504-1.504-5.963-5.963 5.963-5.962z"></path>
</symbol>
<symbol id="icon-Arrow-right" viewBox="0 0 268 32">
<path d="M265.414 17.414c0.781-0.781 0.781-2.047 0-2.828l-12.728-12.728c-0.781-0.781-2.048-0.781-2.828 0s-0.781 2.047 0 2.828l11.314 11.314-11.314 11.314c-0.781 0.781-0.781 2.047 0 2.828s2.047 0.781 2.828 0l12.728-12.728zM0 18h264v-4h-264v4z"></path>
</symbol>
<symbol id="icon-facebook" viewBox="0 0 32 32">
<path stroke-linejoin="round" stroke-linecap="round" stroke-miterlimit="4" stroke-width="2.2857" d="M24 2.667h-4c-1.768 0-3.464 0.702-4.714 1.953s-1.953 2.946-1.953 4.714v4h-4v5.333h4v10.667h5.333v-10.667h4l1.333-5.333h-5.333v-4c0-0.354 0.14-0.693 0.39-0.943s0.589-0.391 0.943-0.391h4v-5.333z"></path>
</symbol>
<symbol id="icon-instagram" viewBox="0 0 28 28"  >
<path d="M19.833 2.33334H8.16634C4.94468 2.33334 2.33301 4.94501 2.33301 8.16667V19.8333C2.33301 23.055 4.94468 25.6667 8.16634 25.6667H19.833C23.0547 25.6667 25.6663 23.055 25.6663 19.8333V8.16667C25.6663 4.94501 23.0547 2.33334 19.833 2.33334Z" stroke="white" stroke-width="2" stroke-linecap="round" stroke-linejoin="round"/>
<path d="M18.6667 13.265C18.8106 14.236 18.6448 15.2276 18.1927 16.0989C17.7406 16.9701 17.0253 17.6766 16.1485 18.118C15.2718 18.5593 14.2782 18.7129 13.3091 18.5569C12.34 18.401 11.4447 17.9434 10.7506 17.2494C10.0566 16.5553 9.599 15.66 9.44306 14.6909C9.28712 13.7218 9.44073 12.7282 9.88203 11.8514C10.3233 10.9747 11.0299 10.2594 11.9011 9.80728C12.7724 9.3552 13.764 9.18935 14.735 9.33333C15.7254 9.4802 16.6423 9.94171 17.3503 10.6497C18.0583 11.3577 18.5198 12.2746 18.6667 13.265Z" stroke="white" stroke-width="2" stroke-linecap="round" stroke-linejoin="round"/>
<path d="M20.417 7.58334H20.4281" stroke="white" stroke-width="2" stroke-linecap="round" stroke-linejoin="round"/>
</symbol>
<symbol id="icon-logo" viewBox="0 0 74 58">
<path d="M18.72 14.2C24.5867 14.2 29.0667 15.64 32.16 18.52C35.3067 21.4 36.88 25.6933 36.88 31.4V57H29.6V51.4C28.32 53.3733 26.48 54.8933 24.08 55.96C21.7333 56.9733 18.9333 57.48 15.68 57.48C10.9333 57.48 7.12 56.3333 4.24 54.04C1.41333 51.7466 0 48.7333 0 45C0 41.2666 1.36 38.28 4.08 36.04C6.8 33.7466 11.12 32.6 17.04 32.6H29.2V31.08C29.2 27.7733 28.24 25.24 26.32 23.4799C24.4 21.72 21.5733 20.84 17.84 20.84C15.3333 20.84 12.88 21.2666 10.48 22.12C8.08 22.92 6.05333 24.0133 4.4 25.4L1.2 19.64C3.38667 17.88 6 16.5466 9.04 15.64C12.08 14.68 15.3067 14.2 18.72 14.2ZM16.96 51.56C19.8933 51.56 22.4267 50.92 24.56 49.64C26.6933 48.3066 28.24 46.44 29.2 44.04V38.12H17.36C10.8533 38.12 7.6 40.3066 7.6 44.68C7.6 46.8133 8.42667 48.4933 10.08 49.72C11.7333 50.9466 14.0267 51.56 16.96 51.56Z" />
<path d="M73.5999 36.04C73.5999 36.6266 73.5465 37.4 73.4399 38.36H39.0399C39.5199 42.0933 41.1465 45.1066 43.9199 47.4C46.7465 49.64 50.2399 50.76 54.3999 50.76C59.4665 50.76 63.5465 49.0533 66.6399 45.64L70.8799 50.6C68.9599 52.84 66.5599 54.5466 63.6799 55.72C60.8532 56.8933 57.6799 57.48 54.1599 57.48C49.6799 57.48 45.7065 56.5733 42.2399 54.76C38.7732 52.8933 36.0799 50.3066 34.1599 47C32.2932 43.6933 31.3599 39.96 31.3599 35.8C31.3599 31.6933 32.2665 27.9866 34.0799 24.68C35.9465 21.3733 38.4799 18.8133 41.6799 17C44.9332 15.1333 48.5865 14.2 52.6399 14.2C56.6932 14.2 60.2932 15.1333 63.4399 17C66.6399 18.8133 69.1199 21.3733 70.8799 24.68C72.6932 27.9866 73.5999 31.7733 73.5999 36.04ZM52.6399 20.68C48.9599 20.68 45.8665 21.8 43.3599 24.04C40.9065 26.28 39.4665 29.2133 39.0399 32.84H66.2399C65.8132 29.2666 64.3465 26.36 61.8399 24.12C59.3865 21.8266 56.3199 20.68 52.6399 20.68Z" />
<path fill-rule="evenodd" clip-rule="evenodd" d="M68 6H40V0H68V6Z"/>
</symbol>
<symbol id="icon-phone" viewBox="0 0 32 32">
<path d="M29.276 6.061l-3.873-3.869c-0.473-0.473-1.105-0.738-1.775-0.738s-1.302 0.262-1.775 0.738l-4.171 4.163c-0.473 0.473-0.738 1.109-0.738 1.778 0 0.673 0.262 1.302 0.738 1.778l3.258 3.261c-0.742 1.729-1.809 3.3-3.142 4.629-1.335 1.342-2.895 2.4-4.625 3.149l-3.258-3.261c-0.473-0.473-1.105-0.738-1.775-0.738-0.33-0.001-0.657 0.063-0.962 0.19s-0.581 0.313-0.813 0.548l-4.175 4.163c-0.473 0.473-0.738 1.109-0.738 1.778 0 0.673 0.262 1.302 0.738 1.778l3.869 3.869c0.807 0.807 1.92 1.269 3.062 1.269 0.236 0 0.465-0.018 0.698-0.058 4.814-0.793 9.593-3.356 13.451-7.21 3.855-3.861 6.415-8.639 7.215-13.456 0.229-1.367-0.229-2.774-1.211-3.76zM27.909 9.388c-0.709 4.287-3.015 8.563-6.487 12.035s-7.746 5.777-12.033 6.486c-0.538 0.091-1.091-0.091-1.484-0.48l-3.8-3.8 4.029-4.032 4.389 4.396 0.785-0.291c2.382-0.875 4.544-2.258 6.338-4.053s3.176-3.957 4.051-6.339l0.291-0.785-4.393-4.389 4.029-4.032 3.8 3.8c0.393 0.393 0.575 0.945 0.484 1.483z"></path>
</symbol>
<symbol id="icon-burger" viewBox="0 0 36 32">
<path d="M0 0h36v4h-36v-4zM12 14h24v4h-24v-4zM0 28h36v4h-36v-4z"></path>
</symbol>
<symbol  viewBox="0 0 166 166" id="icon-hero"  >
<path d="M57.4701 98.152C57.0017 98.4446 56.8593 99.0616 57.152 99.5299C57.4446 99.9983 58.0616 100.141 58.5299 99.848L57.4701 98.152ZM109.857 67.4298C109.981 66.8917 109.646 66.3547 109.108 66.2305L100.339 64.2059C99.8004 64.0817 99.2634 64.4172 99.1392 64.9553C99.0149 65.4935 99.3505 66.0304 99.8886 66.1547L107.684 67.9543L105.884 75.7492C105.76 76.2874 106.095 76.8243 106.633 76.9485C107.172 77.0728 107.708 76.7373 107.833 76.1991L109.857 67.4298ZM58.5299 99.848L109.413 68.0529L108.353 66.3568L57.4701 98.152L58.5299 99.848Z" />
<path d="M148.689 88.8033C148.734 88.0247 148.884 87.2941 149.14 86.6118C149.408 85.9301 149.721 85.4014 150.08 85.0255L151.053 85.6588C150.743 86.0255 150.463 86.5021 150.212 87.0886C149.974 87.6758 149.836 88.2988 149.798 88.9577C149.746 89.8562 149.846 90.5111 150.098 90.9224C150.363 91.3344 150.729 91.554 151.196 91.581C151.544 91.6011 151.82 91.503 152.025 91.2864C152.241 91.0826 152.407 90.8038 152.524 90.4499C152.652 90.0968 152.766 89.7006 152.863 89.2616C152.961 88.8225 153.07 88.3841 153.192 87.9464C153.313 87.5206 153.473 87.1333 153.674 86.7843C153.886 86.436 154.161 86.1574 154.498 85.9485C154.834 85.7516 155.271 85.6688 155.81 85.7C156.325 85.7299 156.778 85.9004 157.169 86.2115C157.559 86.5226 157.853 86.9603 158.048 87.5245C158.255 88.1015 158.336 88.7913 158.289 89.5939C158.254 90.2049 158.134 90.811 157.931 91.4123C157.74 92.0142 157.501 92.5052 157.215 92.8853L156.223 92.2689C156.535 91.8663 156.764 91.4288 156.912 90.9566C157.071 90.485 157.165 90.0096 157.193 89.5304C157.242 88.6798 157.129 88.0422 156.853 87.6176C156.588 87.2056 156.228 86.9864 155.773 86.96C155.414 86.9392 155.126 87.0307 154.91 87.2345C154.693 87.4504 154.514 87.7345 154.374 88.0869C154.244 88.4521 154.131 88.8482 154.034 89.2753C153.937 89.7144 153.822 90.1465 153.689 90.5715C153.567 91.0092 153.406 91.4025 153.206 91.7515C153.016 92.1132 152.754 92.3925 152.418 92.5894C152.093 92.7989 151.673 92.8888 151.158 92.859C150.607 92.827 150.137 92.6435 149.748 92.3085C149.37 91.9861 149.084 91.5248 148.89 90.9246C148.708 90.337 148.641 89.63 148.689 88.8033Z" />
<path d="M156.709 101.14C156.548 101.89 156.26 102.516 155.846 103.016C155.441 103.531 154.911 103.883 154.256 104.074C153.599 104.277 152.825 104.283 151.933 104.091L146.565 102.94L146.833 101.69L152.078 102.815C153.052 103.024 153.838 102.935 154.437 102.548C155.044 102.175 155.443 101.549 155.631 100.669C155.772 100.012 155.761 99.4082 155.597 98.8575C155.442 98.3211 155.141 97.8638 154.695 97.4857C154.257 97.1218 153.687 96.8644 152.983 96.7134L148.125 95.6711L148.393 94.4216L161.452 97.2235L161.184 98.473L154.83 97.1098L155.359 96.9654C155.964 97.4022 156.386 97.9836 156.623 98.7094C156.871 99.4378 156.9 100.248 156.709 101.14Z" />
<path d="M144.038 109.692C144.384 108.848 144.884 108.164 145.539 107.642C146.201 107.135 146.945 106.824 147.77 106.708C148.607 106.597 149.458 106.719 150.324 107.074C151.202 107.433 151.894 107.944 152.401 108.605C152.908 109.267 153.213 110.008 153.318 110.829C153.422 111.65 153.299 112.488 152.949 113.343C152.594 114.209 152.091 114.898 151.441 115.409C150.785 115.932 150.047 116.245 149.226 116.35C148.401 116.466 147.549 116.344 146.672 115.984C145.806 115.629 145.114 115.119 144.596 114.453C144.084 113.802 143.773 113.059 143.662 112.222C143.562 111.39 143.687 110.547 144.038 109.692ZM145.087 110.122C144.828 110.754 144.737 111.372 144.814 111.974C144.903 112.581 145.145 113.128 145.542 113.615C145.946 114.117 146.486 114.508 147.164 114.785C147.852 115.067 148.511 115.169 149.14 115.089C149.765 115.021 150.316 114.799 150.794 114.424C151.283 114.054 151.655 113.558 151.909 112.936C152.164 112.315 152.247 111.7 152.159 111.093C152.082 110.491 151.847 109.941 151.454 109.443C151.062 108.945 150.521 108.555 149.833 108.273C149.156 107.995 148.497 107.894 147.857 107.969C147.227 108.048 146.668 108.273 146.179 108.643C145.702 109.018 145.338 109.511 145.087 110.122Z" />
<path d="M138.584 120.298C139.019 119.608 139.57 119.084 140.237 118.724C140.914 118.371 141.658 118.216 142.468 118.259C143.282 118.318 144.125 118.623 144.998 119.174C145.871 119.725 146.504 120.351 146.898 121.054C147.302 121.763 147.485 122.496 147.447 123.252C147.41 124.009 147.17 124.737 146.728 125.438C146.247 126.199 145.646 126.77 144.923 127.151C144.204 127.548 143.425 127.724 142.589 127.679C141.762 127.639 140.948 127.367 140.146 126.861C139.334 126.348 138.733 125.728 138.342 124.998C137.95 124.269 137.775 123.491 137.814 122.665C137.847 121.848 138.103 121.059 138.584 120.298ZM138.31 114.358L149.255 121.265L148.602 122.3L146.197 120.782L144.666 119.667L142.956 118.801L137.628 115.439L138.31 114.358ZM139.591 120.828C139.232 121.396 139.039 121.983 139.011 122.59C138.993 123.203 139.134 123.788 139.434 124.347C139.744 124.912 140.209 125.389 140.828 125.78C141.447 126.171 142.073 126.381 142.707 126.412C143.34 126.443 143.93 126.318 144.475 126.038C145.021 125.758 145.473 125.334 145.832 124.766C146.191 124.198 146.382 123.602 146.407 122.979C146.425 122.366 146.283 121.78 145.983 121.222C145.676 120.673 145.214 120.204 144.595 119.813C143.975 119.423 143.347 119.204 142.71 119.156C142.077 119.126 141.487 119.25 140.942 119.53C140.4 119.827 139.949 120.259 139.591 120.828Z" />
<path d="M134.814 139.885C134.257 140.414 133.666 140.769 133.042 140.948C132.418 141.144 131.781 141.136 131.133 140.925C130.476 140.721 129.833 140.289 129.205 139.628L125.423 135.649L126.349 134.769L130.045 138.656C130.731 139.378 131.43 139.748 132.143 139.766C132.855 139.802 133.537 139.509 134.19 138.889C134.677 138.426 135.008 137.921 135.183 137.374C135.358 136.844 135.368 136.297 135.212 135.732C135.056 135.185 134.73 134.651 134.234 134.129L130.812 130.528L131.738 129.648L138.249 136.497L137.361 137.34L135.576 135.462L136.054 135.677C136.308 136.38 136.328 137.098 136.114 137.831C135.908 138.572 135.475 139.257 134.814 139.885Z" />
<path d="M119.632 139.736C120.391 139.229 121.188 138.943 122.023 138.875C122.855 138.825 123.646 138.983 124.395 139.348C125.151 139.724 125.788 140.301 126.308 141.079C126.835 141.868 127.123 142.678 127.174 143.51C127.224 144.342 127.063 145.127 126.691 145.866C126.319 146.605 125.748 147.231 124.98 147.744C124.201 148.264 123.399 148.554 122.574 148.615C121.738 148.682 120.951 148.529 120.212 148.157C119.463 147.791 118.825 147.214 118.299 146.426C117.779 145.647 117.49 144.837 117.433 143.995C117.373 143.17 117.53 142.379 117.906 141.624C118.288 140.878 118.864 140.249 119.632 139.736ZM120.262 140.679C119.693 141.058 119.272 141.52 119 142.062C118.734 142.615 118.629 143.204 118.686 143.83C118.74 144.472 118.97 145.097 119.377 145.706C119.79 146.325 120.279 146.777 120.845 147.063C121.401 147.356 121.982 147.48 122.588 147.436C123.2 147.403 123.786 147.199 124.345 146.826C124.904 146.453 125.316 145.99 125.582 145.438C125.855 144.895 125.968 144.308 125.92 143.675C125.873 143.043 125.643 142.418 125.23 141.799C124.824 141.19 124.334 140.738 123.761 140.442C123.195 140.156 122.606 140.03 121.994 140.064C121.388 140.107 120.811 140.312 120.262 140.679Z" />
<path d="M112.033 144.379L118.942 151.746L117.812 152.214L111.463 145.355L111.979 145.142L112.257 154.515L111.243 154.935L104.844 148.097L105.36 147.883L105.671 157.242L104.59 157.69L104.283 147.589L105.397 147.127L111.479 153.531L111.13 153.676L110.919 144.841L112.033 144.379Z" />
<path d="M92.8466 150.134C93.6183 150.02 94.3642 150.019 95.0842 150.131C95.8061 150.255 96.3873 150.455 96.8281 150.729L96.4053 151.811C95.9834 151.582 95.4599 151.404 94.8348 151.278C94.2115 151.164 93.5733 151.154 92.9204 151.251C92.03 151.382 91.409 151.613 91.0575 151.944C90.7078 152.286 90.567 152.689 90.6353 153.152C90.686 153.497 90.8382 153.747 91.0918 153.904C91.3352 154.074 91.642 154.18 92.0122 154.223C92.3841 154.277 92.7949 154.308 93.2446 154.314C93.6944 154.321 94.1459 154.339 94.5992 154.369C95.0405 154.401 95.4524 154.48 95.8348 154.606C96.219 154.743 96.5475 154.955 96.8203 155.243C97.0813 155.532 97.2511 155.943 97.3299 156.478C97.4051 156.988 97.33 157.466 97.1046 157.912C96.8792 158.357 96.5101 158.733 95.9972 159.039C95.4743 159.359 94.8151 159.577 94.0197 159.695C93.4142 159.784 92.7965 159.79 92.1665 159.713C91.5383 159.648 91.0091 159.514 90.5788 159.31L90.9812 158.214C91.4387 158.438 91.9137 158.574 92.406 158.622C92.9002 158.683 93.3847 158.678 93.8595 158.608C94.7024 158.484 95.3038 158.244 95.6637 157.888C96.0135 157.545 96.1551 157.148 96.0886 156.697C96.0361 156.341 95.8881 156.078 95.6447 155.907C95.3893 155.739 95.0749 155.621 94.7012 155.555C94.3174 155.502 93.9066 155.472 93.4687 155.464C93.019 155.457 92.5725 155.432 92.1294 155.388C91.6761 155.358 91.2583 155.28 90.8759 155.155C90.4834 155.043 90.1566 154.842 89.8957 154.553C89.6246 154.278 89.4514 153.885 89.3762 153.374C89.2957 152.828 89.38 152.33 89.6292 151.881C89.8682 151.446 90.2619 151.072 90.8104 150.761C91.3487 150.463 92.0275 150.254 92.8466 150.134Z" />
<path d="M82.1935 160.489C81.4255 160.483 80.7547 160.328 80.181 160.024C79.5953 159.731 79.1427 159.284 78.8234 158.681C78.492 158.079 78.3298 157.321 78.3369 156.409L78.3793 150.92L79.6572 150.929L79.6158 156.293C79.6081 157.289 79.8543 158.041 80.3544 158.549C80.8424 159.069 81.5364 159.332 82.4364 159.339C83.1084 159.344 83.6974 159.211 84.2035 158.939C84.6976 158.679 85.0846 158.291 85.3645 157.778C85.6324 157.276 85.7691 156.665 85.7747 155.945L85.8131 150.977L87.091 150.987L86.9879 164.342L85.7099 164.332L85.7601 157.835L86.0083 158.323C85.7031 159.004 85.219 159.535 84.556 159.913C83.893 160.304 83.1055 160.496 82.1935 160.489Z" />
<path d="M71.3779 149.841C72.2751 150.005 73.047 150.353 73.6937 150.886C74.3264 151.429 74.7846 152.092 75.0682 152.876C75.3497 153.671 75.4063 154.529 75.2379 155.45C75.0674 156.383 74.7108 157.165 74.1682 157.798C73.6255 158.431 72.9634 158.883 72.1817 159.155C71.4001 159.427 70.5548 159.48 69.6458 159.314C68.7251 159.145 67.9473 158.796 67.3124 158.265C66.6657 157.732 66.2064 157.075 65.9346 156.293C65.651 155.509 65.5944 154.651 65.7649 153.719C65.9332 152.798 66.2898 152.015 66.8347 151.371C67.3655 150.736 68.0287 150.278 68.8243 149.996C69.6178 149.726 70.469 149.675 71.3779 149.841ZM71.174 150.956C70.5011 150.833 69.878 150.872 69.3047 151.072C68.7292 151.284 68.2442 151.634 67.8498 152.123C67.4414 152.622 67.1714 153.232 67.0398 153.952C66.906 154.683 66.9429 155.349 67.1505 155.948C67.3463 156.545 67.6769 157.038 68.1424 157.429C68.6056 157.83 69.1678 158.092 69.8289 158.213C70.4899 158.333 71.1082 158.288 71.6837 158.076C72.257 157.876 72.7468 157.532 73.153 157.045C73.5592 156.558 73.8292 155.949 73.9631 155.217C74.0947 154.497 74.0578 153.832 73.8523 153.221C73.6447 152.622 73.3093 152.121 72.846 151.719C72.3805 151.329 71.8232 151.075 71.174 150.956Z" />
<path d="M59.8818 146.687C60.6468 146.971 61.2741 147.402 61.7635 147.98C62.2487 148.57 62.5539 149.265 62.6789 150.067C62.7885 150.875 62.6638 151.763 62.3048 152.731C61.9459 153.698 61.4632 154.447 60.8569 154.978C60.2465 155.519 59.5671 155.849 58.8189 155.969C58.0707 156.088 57.3085 156.004 56.5321 155.716C55.6883 155.403 55.0054 154.932 54.4835 154.303C53.9462 153.682 53.6136 152.957 53.4857 152.128C53.3536 151.312 53.4524 150.459 53.7822 149.57C54.1161 148.67 54.5995 147.953 55.2325 147.42C55.8655 146.887 56.5905 146.554 57.4074 146.422C58.2132 146.286 59.0379 146.374 59.8818 146.687ZM65.6386 145.194L61.137 157.328L59.9894 156.902L60.9786 154.236L61.7542 152.507L62.2491 150.656L64.4404 144.749L65.6386 145.194ZM59.5717 147.782C58.9416 147.548 58.3269 147.48 57.7275 147.577C57.124 147.686 56.5799 147.945 56.0954 148.354C55.6067 148.775 55.235 149.328 54.9804 150.014C54.7258 150.701 54.6487 151.357 54.7493 151.983C54.8498 152.609 55.0933 153.16 55.4798 153.636C55.8663 154.112 56.3746 154.467 57.0047 154.701C57.6348 154.934 58.2572 154.999 58.872 154.894C59.4756 154.785 60.0196 154.526 60.5042 154.117C60.9775 153.704 61.3414 153.154 61.596 152.468C61.8506 151.782 61.9354 151.122 61.8503 150.489C61.7498 149.863 61.5062 149.312 61.1197 148.836C60.7178 148.367 60.2018 148.015 59.5717 147.782Z" />
<path d="M39.9277 146.989C39.2969 146.551 38.8304 146.044 38.5284 145.469C38.2097 144.897 38.0884 144.273 38.1645 143.595C38.2308 142.911 38.524 142.194 39.0443 141.445L42.1759 136.936L43.2257 137.665L40.1659 142.07C39.5978 142.888 39.3769 143.648 39.5034 144.349C39.6132 145.054 40.0378 145.663 40.7771 146.176C41.3291 146.559 41.8908 146.781 42.4622 146.842C43.0169 146.906 43.5548 146.804 44.0759 146.538C44.5802 146.275 45.0378 145.847 45.4485 145.256L48.2824 141.175L49.3321 141.904L43.9416 149.666L42.9362 148.968L44.4147 146.839L44.3001 147.351C43.6635 147.742 42.9646 147.907 42.2035 147.846C41.4354 147.795 40.6768 147.509 39.9277 146.989Z" />
<path d="M37.0145 132.119C37.6641 132.759 38.1064 133.481 38.3413 134.285C38.5593 135.09 38.5652 135.896 38.3589 136.703C38.1442 137.519 37.7083 138.261 37.0512 138.927C36.3857 139.603 35.6507 140.049 34.8461 140.267C34.0415 140.485 33.2396 140.487 32.4403 140.272C31.6411 140.057 30.9124 139.625 30.2542 138.977C29.5875 138.32 29.141 137.593 28.9146 136.797C28.6796 135.993 28.6695 135.191 28.8844 134.392C29.0906 133.585 29.5265 132.843 30.192 132.168C30.8491 131.502 31.5841 131.055 32.3972 130.828C33.1932 130.602 33.9994 130.596 34.8156 130.811C35.6234 131.034 36.3563 131.47 37.0145 132.119ZM36.2184 132.926C35.7312 132.446 35.1943 132.128 34.6076 131.971C34.0125 131.822 33.4144 131.839 32.8132 132.022C32.195 132.204 31.629 132.556 31.1151 133.078C30.5928 133.608 30.2491 134.179 30.0838 134.791C29.91 135.394 29.9058 135.988 30.0713 136.573C30.2283 137.165 30.5462 137.698 31.0248 138.169C31.5035 138.641 32.0404 138.951 32.6355 139.099C33.2222 139.256 33.8204 139.248 34.4301 139.074C35.0398 138.9 35.6058 138.548 36.1281 138.018C36.642 137.496 36.9858 136.925 37.1595 136.305C37.3247 135.693 37.3289 135.09 37.1718 134.497C37.0063 133.913 36.6885 133.389 36.2184 132.926Z" />
<path d="M30.9419 125.662L25.1518 133.937L24.461 132.927L29.8693 125.305L30.1842 125.766L21.0678 127.964L20.4481 127.057L25.8259 119.392L26.1408 119.852L17.0447 122.08L16.3844 121.114L26.2077 118.738L26.8884 119.734L21.8704 127.001L21.6571 126.689L30.2613 124.667L30.9419 125.662Z" />
<path d="M21.3518 108.085C21.6231 108.816 21.7786 109.545 21.8181 110.273C21.8464 111.005 21.772 111.615 21.5947 112.103L20.4492 111.913C20.5857 111.453 20.6508 110.904 20.6446 110.267C20.6272 109.633 20.5037 109.007 20.2741 108.388C19.9611 107.545 19.6063 106.985 19.2098 106.71C18.802 106.439 18.3788 106.384 17.94 106.547C17.6137 106.668 17.4002 106.869 17.2995 107.149C17.1833 107.423 17.1429 107.745 17.1781 108.116C17.202 108.491 17.2575 108.899 17.3444 109.341C17.4314 109.782 17.507 110.227 17.5715 110.677C17.6317 111.115 17.6401 111.535 17.5965 111.935C17.5417 112.339 17.4021 112.704 17.1776 113.031C16.949 113.346 16.5815 113.598 16.0752 113.785C15.5914 113.965 15.1082 113.99 14.6254 113.862C14.1427 113.734 13.6985 113.451 13.2927 113.013C12.8715 112.567 12.5211 111.968 12.2414 111.214C12.0286 110.64 11.8944 110.037 11.8391 109.405C11.7725 108.777 11.7941 108.231 11.9038 107.768L13.0599 107.935C12.936 108.429 12.9012 108.922 12.9557 109.413C12.9989 109.909 13.1039 110.382 13.2709 110.832C13.5673 111.631 13.927 112.17 14.3502 112.448C14.758 112.719 15.1756 112.775 15.6032 112.617C15.9407 112.491 16.1675 112.292 16.2837 112.019C16.3956 111.734 16.4453 111.402 16.4326 111.023C16.4044 110.636 16.349 110.228 16.2662 109.798C16.1793 109.357 16.1113 108.915 16.0623 108.472C15.9979 108.023 15.9875 107.598 16.031 107.198C16.0591 106.79 16.1875 106.429 16.4162 106.114C16.6294 105.792 16.9779 105.541 17.4617 105.361C17.9792 105.169 18.4835 105.149 18.9746 105.299C19.4502 105.443 19.8972 105.751 20.3155 106.223C20.7184 106.688 21.0638 107.308 21.3518 108.085Z" />
<path d="M9.07032 100.022C8.91777 99.2696 8.9313 98.5812 9.11092 97.9571C9.27639 97.3236 9.62097 96.7885 10.1447 96.3518C10.666 95.9034 11.3735 95.5886 12.2674 95.4075L17.6481 94.3173L17.9019 95.5698L12.6447 96.635C11.6686 96.8328 10.9836 97.2287 10.5897 97.8227C10.1817 98.4074 10.0671 99.1408 10.2459 100.023C10.3793 100.681 10.6314 101.23 11.002 101.669C11.3585 102.099 11.817 102.398 12.3775 102.566C12.9239 102.725 13.55 102.733 14.2556 102.59L19.1247 101.603L19.3785 102.856L6.28851 105.508L6.03466 104.255L12.4033 102.965L11.977 103.309C11.247 103.15 10.6283 102.786 10.1209 102.215C9.60165 101.647 9.25147 100.916 9.07032 100.022Z" />
<path d="M17.2553 87.2585C17.2799 88.1702 17.0982 88.9974 16.7101 89.7401C16.3097 90.4712 15.7553 91.0564 15.0469 91.4957C14.3266 91.9353 13.4985 92.1678 12.5629 92.193C11.6152 92.2186 10.7759 92.0312 10.0448 91.6308C9.31369 91.2304 8.73449 90.6759 8.30719 89.9672C7.87989 89.2585 7.65375 88.4423 7.62879 87.5186C7.6035 86.5829 7.78505 85.7497 8.17345 85.019C8.56152 84.2762 9.10992 83.6912 9.81863 83.2639C10.527 82.8246 11.355 82.5922 12.3027 82.5666C13.2384 82.5413 14.0777 82.7287 14.8208 83.1287C15.5516 83.5171 16.1368 84.0715 16.5764 84.7919C17.004 85.5126 17.2303 86.3348 17.2553 87.2585ZM16.1217 87.2891C16.1032 86.6054 15.9369 86.0036 15.6227 85.4839C15.2966 84.9646 14.8536 84.5624 14.2936 84.2774C13.7214 83.9807 13.0694 83.8423 12.3377 83.8621C11.594 83.8822 10.9504 84.0556 10.4071 84.3824C9.86337 84.6972 9.44871 85.1226 9.16309 85.6585C8.86547 86.1947 8.72574 86.7987 8.74389 87.4705C8.76205 88.1422 8.9342 88.7378 9.26035 89.2572C9.57451 89.7769 10.0117 90.1852 10.5719 90.4822C11.1322 90.7792 11.7841 90.9176 12.5279 90.8975C13.2596 90.8777 13.9031 90.7043 14.4585 90.3772C15.0019 90.0504 15.4224 89.6189 15.72 89.0826C16.0056 88.5467 16.1395 87.9489 16.1217 87.2891Z" />
<path d="M17.9505 75.2661C17.8313 76.0733 17.5395 76.7763 17.0751 77.3751C16.5988 77.9721 15.9815 78.415 15.2232 78.7036C14.4547 78.9787 13.56 79.0411 12.539 78.8908C11.518 78.7406 10.6853 78.424 10.041 77.941C9.38473 77.4563 8.92079 76.8604 8.64916 76.1533C8.37753 75.4462 8.30218 74.6831 8.42312 73.864C8.55458 72.9737 8.87384 72.208 9.3809 71.567C9.87785 70.9124 10.5182 70.4365 11.302 70.1395C12.0739 69.8407 12.9288 69.7603 13.8667 69.8983C14.8165 70.0381 15.6178 70.3622 16.2705 70.8707C16.9232 71.3791 17.3988 72.0192 17.6973 72.7909C17.9976 73.5507 18.082 74.3757 17.9505 75.2661ZM20.6038 80.5871L7.79966 78.7028L7.97844 77.4919L10.7921 77.906L12.6436 78.3058L14.5576 78.4055L20.7904 79.3228L20.6038 80.5871ZM16.8154 75.19C16.9136 74.5252 16.8528 73.9098 16.6332 73.3438C16.4016 72.776 16.0356 72.2977 15.535 71.9086C15.0226 71.5179 14.4043 71.2692 13.6801 71.1626C12.9559 71.056 12.2979 71.1169 11.7062 71.3452C11.1146 71.5735 10.6258 71.9261 10.24 72.403C9.85421 72.8799 9.61224 73.4507 9.51408 74.1155C9.41593 74.7803 9.48175 75.4025 9.71155 75.9822C9.9431 76.5499 10.3092 77.0283 10.8097 77.4174C11.312 77.7945 11.9252 78.0364 12.6494 78.1429C13.3736 78.2495 14.0367 78.1955 14.6385 77.9808C15.2302 77.7525 15.7189 77.3999 16.1047 76.923C16.4804 76.4325 16.7173 75.8548 16.8154 75.19Z" />
<path d="M13.5559 55.6515C13.8551 54.9442 14.255 54.3837 14.7557 53.9701C15.2501 53.5407 15.8367 53.2937 16.5155 53.229C17.199 53.1533 17.9608 53.293 18.8008 53.6482L23.8572 55.7866L23.3593 56.9636L18.4189 54.8743C17.5016 54.4864 16.7126 54.4263 16.0521 54.6942C15.3851 54.9463 14.8763 55.4869 14.5257 56.3157C14.2639 56.9346 14.1619 57.5299 14.2198 58.1016C14.2712 58.6576 14.4808 59.1631 14.8485 59.6183C15.2099 60.0578 15.7221 60.4177 16.3853 60.6982L20.9609 62.6332L20.463 63.8102L11.7593 60.1294L12.2362 59.0021L14.6235 60.0117L14.0987 60.0048C13.5856 59.4621 13.2808 58.812 13.1843 58.0546C13.0767 57.2925 13.2005 56.4915 13.5559 55.6515Z" />
<path d="M27.5055 49.7591C27.0102 50.525 26.3925 51.1044 25.6524 51.4976C24.9087 51.8741 24.1205 52.0433 23.2877 52.005C22.445 51.9603 21.6305 51.6838 20.8445 51.1756C20.0484 50.6609 19.4621 50.0318 19.0855 49.2882C18.709 48.5446 18.5449 47.7597 18.5932 46.9336C18.6416 46.1075 18.9167 45.3065 19.4185 44.5306C19.9268 43.7447 20.5477 43.1602 21.2813 42.7771C22.0215 42.384 22.8046 42.2115 23.6308 42.2599C24.4636 42.2981 25.278 42.5746 26.0741 43.0893C26.8601 43.5975 27.4464 44.2266 27.8331 44.9767C28.2161 45.7102 28.3853 46.4984 28.3405 47.341C28.2856 48.1772 28.0072 48.9833 27.5055 49.7591ZM26.5532 49.1435C26.9246 48.5691 27.1277 47.9788 27.1625 47.3726C27.1872 46.7598 27.0493 46.1776 26.7486 45.626C26.4444 45.0578 25.985 44.575 25.3703 44.1775C24.7455 43.7736 24.1166 43.5528 23.4836 43.515C22.8571 43.4672 22.2746 43.5836 21.7359 43.8641C21.1872 44.138 20.7303 44.5572 20.3654 45.1214C20.0005 45.6857 19.8057 46.2742 19.7809 46.887C19.7462 47.4932 19.8758 48.0772 20.1699 48.6389C20.4641 49.2006 20.9235 49.6834 21.5483 50.0874C22.163 50.4848 22.7919 50.7056 23.435 50.7499C24.068 50.7876 24.6588 50.6694 25.2076 50.3955C25.7462 50.115 26.1947 49.6977 26.5532 49.1435Z" />
<path d="M32.5626 42.5066L23.2856 38.5127L24.1353 37.6317L32.695 41.3841L32.3076 41.7857L28.3088 33.3044L29.071 32.514L37.6682 36.2275L37.2808 36.6291L33.257 28.1737L34.0692 27.3316L38.3855 36.4691L37.5483 37.3371L29.4144 33.8953L29.6768 33.6232L33.3998 41.6386L32.5626 42.5066Z" />
<path d="M47.6579 29.6061C46.9982 30.0223 46.3165 30.3249 45.6126 30.5136C44.9023 30.6923 44.29 30.7452 43.7757 30.6724L43.7248 29.5126C44.2033 29.5512 44.7539 29.5017 45.3766 29.3642C45.9929 29.2165 46.5801 28.9666 47.1383 28.6143C47.8994 28.134 48.3738 27.6715 48.5614 27.2268C48.7425 26.7719 48.7082 26.3466 48.4584 25.9509C48.2727 25.6566 48.0321 25.4891 47.7368 25.4484C47.4453 25.3912 47.1216 25.418 46.7659 25.529C46.4038 25.6298 46.0158 25.7682 45.6019 25.9442C45.188 26.1203 44.7677 26.2862 44.3409 26.442C43.9244 26.5914 43.5158 26.686 43.1153 26.7259C42.7083 26.7557 42.322 26.6944 41.9562 26.5421C41.6006 26.3834 41.2787 26.0757 40.9905 25.619C40.715 25.1827 40.5902 24.7152 40.616 24.2165C40.6418 23.7177 40.8272 23.2247 41.1723 22.7373C41.5212 22.2334 42.0356 21.7669 42.7156 21.3378C43.2331 21.0112 43.7955 20.7556 44.4028 20.5711C45.0036 20.3764 45.5419 20.285 46.0177 20.2969L46.0935 21.4623C45.5846 21.4429 45.0951 21.5106 44.6251 21.6653C44.1487 21.8098 43.7076 22.0101 43.3016 22.2663C42.5811 22.721 42.1284 23.184 41.9435 23.6555C41.7623 24.1103 41.7934 24.5306 42.0368 24.9162C42.229 25.2206 42.4708 25.4014 42.7624 25.4587C43.0641 25.5095 43.3992 25.4896 43.7677 25.399C44.14 25.2918 44.528 25.1533 44.9317 24.9837C45.3457 24.8076 45.7641 24.65 46.1871 24.5108C46.6138 24.355 47.0275 24.2572 47.428 24.2173C47.8323 24.1608 48.2122 24.2119 48.5678 24.3706C48.9272 24.5128 49.2446 24.8021 49.52 25.2384C49.8146 25.7052 49.9389 26.1943 49.8928 26.7059C49.8505 27.2008 49.6415 27.7016 49.266 28.2082C48.8941 28.6983 48.3581 29.1642 47.6579 29.6061Z" />
<path d="M53.2034 15.8037C53.9085 15.4993 54.585 15.3707 55.2327 15.4178C55.8867 15.4491 56.4814 15.676 57.0168 16.0984C57.5631 16.516 58.0171 17.1435 58.3787 17.9807L60.5552 23.0208L59.3819 23.5274L57.2553 18.603C56.8604 17.6886 56.3317 17.0999 55.6692 16.837C55.0129 16.5583 54.2716 16.5973 53.4453 16.9541C52.8284 17.2204 52.3432 17.5802 51.99 18.0333C51.6429 18.4707 51.445 18.981 51.3962 19.5641C51.3536 20.1314 51.4751 20.7456 51.7605 21.4066L53.7302 25.9674L52.5568 26.474L47.2617 14.2125L48.435 13.706L51.0112 19.6715L50.5872 19.3252C50.5914 18.5783 50.8204 17.8978 51.2741 17.2837C51.723 16.6585 52.3661 16.1652 53.2034 15.8037Z" />
<path d="M67.1813 21.228C66.2942 21.4396 65.4473 21.432 64.6405 21.205C63.8427 20.9636 63.1559 20.5414 62.5803 19.9386C62.0018 19.324 61.6039 18.5616 61.3867 17.6511C61.1666 16.729 61.1773 15.8691 61.4187 15.0713C61.6601 14.2735 62.0836 13.5926 62.6892 13.0286C63.2948 12.4647 64.047 12.0755 64.9458 11.8611C65.8563 11.6438 66.709 11.6501 67.5041 11.8799C68.3108 12.1068 68.9961 12.5232 69.5601 13.1288C70.1358 13.7317 70.5337 14.4941 70.7538 15.4162C70.971 16.3267 70.9604 17.1866 70.7218 17.9961C70.492 18.7911 70.0699 19.4778 69.4554 20.0562C68.8381 20.623 68.0801 21.0136 67.1813 21.228ZM66.918 20.125C67.5834 19.9662 68.138 19.6797 68.5819 19.2654C69.0231 18.8393 69.3255 18.3231 69.4892 17.7165C69.6617 17.0955 69.6631 16.429 69.4931 15.717C69.3204 14.9933 69.0183 14.3992 68.5866 13.9347C68.1667 13.4674 67.6651 13.1491 67.0819 12.9799C66.4959 12.7989 65.876 12.7864 65.2224 12.9424C64.5687 13.0983 64.0213 13.3893 63.5802 13.8153C63.1362 14.2297 62.8266 14.7415 62.6512 15.3508C62.4759 15.9602 62.4746 16.6267 62.6473 17.3504C62.8172 18.0624 63.1194 18.6565 63.5538 19.1326C63.9854 19.5972 64.4942 19.9199 65.0802 20.1008C65.6635 20.2701 66.2761 20.2781 66.918 20.125Z" />
<path d="M78.8087 19.4474C77.9943 19.4977 77.2462 19.3576 76.5645 19.027C75.8821 18.6845 75.3214 18.1721 74.8825 17.4899C74.4548 16.7949 74.2091 15.9324 74.1454 14.9024C74.0817 13.8724 74.2197 12.9922 74.5593 12.2618C74.8981 11.5195 75.3854 10.9424 76.0212 10.5304C76.657 10.1184 77.3881 9.88683 78.2145 9.83575C79.1128 9.78024 79.9279 9.93425 80.6597 10.2978C81.4028 10.6486 82.0005 11.1768 82.4529 11.8822C82.9045 12.5757 83.1596 13.3955 83.2181 14.3417C83.2773 15.2999 83.1255 16.1508 82.7628 16.8946C82.4 17.6384 81.8718 18.2362 81.1784 18.6878C80.4969 19.1387 79.707 19.3919 78.8087 19.4474ZM74.1499 23.1438L73.3514 10.2265L74.5731 10.151L74.7485 12.9896L74.7394 14.8837L75.0368 16.777L75.4255 23.065L74.1499 23.1438ZM78.6489 18.3211C79.3196 18.2797 79.9092 18.0929 80.4177 17.7609C80.9255 17.417 81.318 16.9599 81.5954 16.3897C81.872 15.8075 81.9877 15.1511 81.9425 14.4205C81.8974 13.6899 81.7021 13.0588 81.3566 12.5271C81.0111 11.9954 80.5653 11.5901 80.019 11.3113C79.4728 11.0324 78.8643 10.9137 78.1936 10.9552C77.5229 10.9966 76.9276 11.1897 76.4079 11.5344C75.9002 11.8784 75.5076 12.3355 75.2303 12.9057C74.9649 13.4751 74.8548 14.1252 74.9 14.8558C74.9451 15.5864 75.1348 16.2239 75.4691 16.7683C75.8145 17.3 76.2604 17.7053 76.8066 17.9841C77.3641 18.2502 77.9782 18.3626 78.6489 18.3211Z" />
<path d="M97.5281 11.0836C98.282 11.2303 98.9129 11.506 99.421 11.9105C99.9431 12.3055 100.306 12.8285 100.509 13.4793C100.724 14.1325 100.745 14.9066 100.57 15.8018L99.521 21.1906L98.2666 20.9464L99.2918 15.6813C99.4822 14.7037 99.3782 13.9193 98.9798 13.3283C98.5955 12.7278 97.9617 12.3416 97.0782 12.1696C96.4186 12.0412 95.8151 12.0643 95.2676 12.2389C94.7342 12.404 94.2827 12.7134 93.9132 13.1672C93.5577 13.6115 93.3112 14.1869 93.1736 14.8937L92.224 19.7701L90.9696 19.5259L92.7758 10.2501L93.9772 10.484L93.4818 13.0282L93.3804 12.5133C93.8056 11.8993 94.3788 11.4668 95.1 11.216C95.8236 10.9534 96.6329 10.9093 97.5281 11.0836Z" />
<path d="M106.118 23.4859C105.267 23.1591 104.572 22.6742 104.035 22.031C103.513 21.381 103.185 20.6446 103.051 19.822C102.922 18.9881 103.024 18.1343 103.36 17.2604C103.699 16.3754 104.194 15.672 104.845 15.1503C105.495 14.6286 106.229 14.3063 107.047 14.1833C107.866 14.0604 108.706 14.1645 109.569 14.4955C110.443 14.8309 111.143 15.318 111.669 15.9568C112.206 16.6 112.536 17.3307 112.659 18.1491C112.793 18.9717 112.69 19.8256 112.35 20.7106C112.015 21.5845 111.52 22.2878 110.866 22.8207C110.227 23.3467 109.49 23.6747 108.656 23.8045C107.827 23.9231 106.981 23.8169 106.118 23.4859ZM106.524 22.4272C107.163 22.6723 107.782 22.7494 108.383 22.6585C108.988 22.5563 109.529 22.3014 110.007 21.8935C110.5 21.4788 110.878 20.9297 111.141 20.2463C111.407 19.5517 111.494 18.8909 111.4 18.2637C111.318 17.6409 111.084 17.0949 110.699 16.6256C110.318 16.1452 109.813 15.7846 109.186 15.5438C108.558 15.3031 107.942 15.2337 107.338 15.3358C106.737 15.4268 106.192 15.674 105.703 16.0775C105.214 16.4811 104.836 17.0302 104.57 17.7247C104.307 18.4081 104.221 19.069 104.31 19.7073C104.403 20.3344 104.641 20.8882 105.022 21.3687C105.407 21.8379 105.908 22.1908 106.524 22.4272Z" />
<path d="M114.465 27.0457L116.495 17.1525L117.53 17.8057L115.591 26.9476L115.119 26.6498L122.615 21.0141L123.543 21.6001L121.65 30.7707L121.178 30.473L128.643 24.8181L129.632 25.4425L121.559 31.5221L120.539 30.8785L122.26 22.2164L122.58 22.4182L115.485 27.6893L114.465 27.0457Z" />
<path d="M130.179 39.2443C129.637 38.6828 129.202 38.0767 128.875 37.4258C128.556 36.7665 128.38 36.1778 128.347 35.6596L129.472 35.3745C129.532 35.8508 129.692 36.3798 129.953 36.9616C130.222 37.5351 130.586 38.0594 131.044 38.5344C131.669 39.1822 132.218 39.5529 132.692 39.6463C133.174 39.7315 133.584 39.6116 133.921 39.2868C134.171 39.0452 134.286 38.7758 134.266 38.4784C134.263 38.1813 134.171 37.8699 133.991 37.5442C133.818 37.2101 133.604 36.8583 133.348 36.4887C133.091 36.1191 132.844 35.7413 132.604 35.355C132.374 34.9775 132.198 34.5966 132.078 34.2126C131.966 33.8202 131.948 33.4295 132.023 33.0405C132.106 32.6601 132.342 32.2825 132.731 31.9077C133.102 31.5496 133.535 31.3326 134.028 31.2567C134.522 31.1808 135.042 31.2624 135.59 31.5014C136.154 31.7408 136.715 32.1499 137.273 32.7286C137.698 33.1691 138.063 33.6679 138.367 34.225C138.679 34.7738 138.878 35.2823 138.963 35.7506L137.837 36.0611C137.752 35.5589 137.587 35.0934 137.34 34.6646C137.102 34.2275 136.816 33.8362 136.483 33.4907C135.892 32.8774 135.346 32.5281 134.847 32.4426C134.365 32.3575 133.96 32.4732 133.631 32.7897C133.372 33.0396 133.244 33.313 133.247 33.6101C133.259 33.9158 133.346 34.2399 133.51 34.5823C133.69 34.925 133.904 35.2768 134.152 35.6377C134.409 36.0073 134.648 36.385 134.87 36.7709C135.109 37.1572 135.289 37.5423 135.409 37.9264C135.547 38.3107 135.574 38.6931 135.49 39.0735C135.424 39.4541 135.205 39.8235 134.834 40.1817C134.436 40.5648 133.983 40.7857 133.472 40.8443C132.979 40.9033 132.446 40.8002 131.874 40.5352C131.318 40.2706 130.753 39.8402 130.179 39.2443Z" />
<path d="M144.718 41.7377C145.161 42.3653 145.426 43.0008 145.512 43.6444C145.616 44.2909 145.516 44.9194 145.212 45.5299C144.916 46.1503 144.395 46.7233 143.649 47.2489L139.163 50.4128L138.426 49.3685L142.81 46.2771C143.624 45.7031 144.091 45.065 144.213 44.3627C144.351 43.6633 144.161 42.9458 143.642 42.2104C143.254 41.6613 142.803 41.2603 142.287 41.0075C141.787 40.7576 141.247 40.6686 140.666 40.7405C140.102 40.8152 139.526 41.06 138.938 41.475L134.878 44.3381L134.141 43.2938L145.056 35.5965L145.793 36.6409L140.482 40.3857L140.734 39.8997C141.466 39.7507 142.179 39.8352 142.874 40.1532C143.578 40.4643 144.192 40.9924 144.718 41.7377Z" />
<path d="M142.356 56.6758C141.967 55.8512 141.8 55.0208 141.857 54.1847C141.929 53.3543 142.201 52.5956 142.673 51.9084C143.155 51.2161 143.82 50.6702 144.666 50.2706C145.524 49.8659 146.367 49.6997 147.198 49.7721C148.028 49.8446 148.782 50.1192 149.458 50.5961C150.134 51.073 150.67 51.7292 151.065 52.5647C151.464 53.4111 151.633 54.2469 151.572 55.0721C151.515 55.9082 151.249 56.6644 150.772 57.3407C150.3 58.0279 149.636 58.5738 148.778 58.9785C147.932 59.3781 147.088 59.5442 146.247 59.477C145.421 59.4154 144.663 59.1433 143.97 58.6607C143.289 58.173 142.751 57.5114 142.356 56.6758ZM143.382 56.1917C143.674 56.8102 144.068 57.2942 144.565 57.6435C145.072 57.9878 145.64 58.1777 146.267 58.2133C146.91 58.2547 147.563 58.1191 148.225 57.8066C148.898 57.489 149.417 57.0713 149.783 56.5535C150.154 56.0466 150.363 55.4903 150.408 54.8848C150.465 54.2742 150.35 53.665 150.063 53.0574C149.776 52.4497 149.379 51.9738 148.871 51.6295C148.374 51.2802 147.81 51.0822 147.177 51.0358C146.545 50.9893 145.892 51.1249 145.22 51.4425C144.558 51.755 144.038 52.1727 143.662 52.6956C143.296 53.2134 143.084 53.7776 143.028 54.3882C142.982 54.9937 143.1 55.5949 143.382 56.1917Z" />
<path d="M146.468 67.6959C146.252 66.9091 146.235 66.1482 146.419 65.4132C146.614 64.675 147 64.0211 147.578 63.4516C148.17 62.8904 148.964 62.473 149.959 62.1993C150.954 61.9256 151.844 61.88 152.629 62.0625C153.425 62.2418 154.09 62.6004 154.623 63.1381C155.157 63.6758 155.534 64.3438 155.753 65.1421C155.992 66.0099 156.009 66.8392 155.803 67.63C155.612 68.4292 155.218 69.1226 154.62 69.7101C154.034 70.2944 153.284 70.7123 152.37 70.9637C151.445 71.2183 150.581 71.2443 149.778 71.0419C148.976 70.8394 148.282 70.4452 147.698 69.8592C147.117 69.2847 146.707 68.5636 146.468 67.6959ZM141.894 63.8947L154.373 60.4627L154.697 61.6429L151.955 62.3971L150.099 62.7768L148.307 63.4563L142.233 65.127L141.894 63.8947ZM147.538 67.3084C147.716 67.9563 148.02 68.495 148.449 68.9246C148.89 69.3509 149.418 69.6413 150.033 69.7957C150.659 69.947 151.326 69.9256 152.031 69.7315C152.737 69.5373 153.315 69.2167 153.764 68.7695C154.214 68.3223 154.519 67.8028 154.68 67.2109C154.84 66.6191 154.832 65.9992 154.653 65.3513C154.475 64.7034 154.164 64.1605 153.72 63.7225C153.279 63.2962 152.751 63.0058 152.136 62.8513C151.524 62.7085 150.866 62.7341 150.16 62.9282C149.454 63.1223 148.869 63.4388 148.405 63.8776C147.955 64.3248 147.65 64.8443 147.489 65.4362C147.343 66.0364 147.359 66.6604 147.538 67.3084Z" />
</symbol>
<symbol  viewBox="0 0 68 76" id="hero-svg-mobile" >
<path d="M47.1463 31.6202C47.1895 31.3475 47.0034 31.0914 46.7307 31.0482L42.2861 30.3442C42.0134 30.301 41.7572 30.4871 41.714 30.7598C41.6708 31.0326 41.8569 31.2887 42.1297 31.3319L46.0804 31.9576L45.4547 35.9084C45.4115 36.1811 45.5976 36.4373 45.8703 36.4805C46.143 36.5237 46.3992 36.3376 46.4424 36.0648L47.1463 31.6202ZM24.2939 48.4045L46.9464 31.9465L46.3586 31.1375L23.7061 47.5955L24.2939 48.4045Z" fill="black"/>
<path d="M58.6659 40.5006C58.7289 39.9408 58.8661 39.4199 59.0774 38.9377C59.2973 38.4565 59.5438 38.0873 59.817 37.8301L60.4939 38.3244C60.2562 38.5769 60.0355 38.9097 59.832 39.323C59.6371 39.7372 59.513 40.1812 59.4596 40.6549C59.3869 41.3008 59.4335 41.7769 59.5996 42.0833C59.7743 42.3906 60.0296 42.5631 60.3655 42.6007C60.6153 42.6286 60.8183 42.5685 60.9746 42.4203C61.1384 42.2816 61.2694 42.087 61.3674 41.8363C61.474 41.5866 61.5711 41.3053 61.6586 40.9925C61.7462 40.6796 61.8424 40.3677 61.9472 40.0568C62.051 39.7544 62.182 39.4813 62.3403 39.2374C62.5072 38.9944 62.7162 38.8042 62.9672 38.6666C63.2172 38.5376 63.536 38.4947 63.9235 38.5381C64.2939 38.5795 64.6139 38.72 64.8834 38.9595C65.153 39.1989 65.3473 39.5259 65.4663 39.9404C65.593 40.3644 65.6238 40.8649 65.5588 41.442C65.5094 41.8812 65.3996 42.3137 65.2296 42.7394C65.0681 43.1661 64.8767 43.5109 64.6552 43.7739L63.9639 43.2911C64.2045 43.0128 64.3873 42.7062 64.5123 42.3713C64.6458 42.0375 64.732 41.6983 64.7708 41.3538C64.8396 40.7423 64.7829 40.2781 64.6005 39.9612C64.4258 39.6539 64.1748 39.4819 63.8475 39.4453C63.5892 39.4164 63.378 39.4712 63.2141 39.6099C63.0493 39.7571 62.9093 39.9551 62.794 40.2038C62.6865 40.4621 62.5894 40.7434 62.5028 41.0477C62.4152 41.3606 62.3152 41.6677 62.2028 41.969C62.098 42.28 61.9664 42.5574 61.8082 42.8013C61.6575 43.0548 61.4572 43.246 61.2072 43.375C60.9648 43.5136 60.6585 43.5622 60.2881 43.5208C59.8919 43.4764 59.56 43.3259 59.2924 43.0692C59.0324 42.8221 58.8443 42.4784 58.7282 42.0381C58.6197 41.6074 58.599 41.0949 58.6659 40.5006Z" fill="black"/>
<path d="M63.3463 50.1166C63.1393 50.6312 62.8575 51.0412 62.501 51.3467C62.1494 51.6635 61.7287 51.8499 61.239 51.9062C60.746 51.9704 60.1937 51.8803 59.5821 51.6358L55.9005 50.1638L56.245 49.3076L59.8422 50.7457C60.5101 51.0127 61.081 51.045 61.5549 50.8424C62.0336 50.6511 62.3942 50.254 62.6369 49.651C62.8181 49.2007 62.8841 48.7697 62.8349 48.3581C62.7905 47.9576 62.6325 47.5958 62.3608 47.2725C62.094 46.9605 61.7192 46.708 61.2363 46.5149L57.9047 45.183L58.2493 44.3267L67.206 47.9076L66.8614 48.7639L62.5038 47.0217L62.8977 46.9831C63.2755 47.3675 63.5042 47.8323 63.5837 48.3775C63.6714 48.9258 63.5922 49.5056 63.3463 50.1166Z" fill="black"/>
<path d="M53.4711 53.3089C53.8879 52.7989 54.378 52.4321 54.9412 52.2085C55.5058 51.9971 56.0859 51.9378 56.6815 52.0307C57.2839 52.1291 57.8474 52.3913 58.3722 52.8174C58.9037 53.249 59.2754 53.7461 59.4871 54.3088C59.6988 54.8714 59.7545 55.447 59.6542 56.0354C59.5539 56.6237 59.2926 57.1763 58.8703 57.693C58.4425 58.2164 57.9497 58.5866 57.3919 58.8035C56.8286 59.0271 56.2519 59.0891 55.6618 58.9895C55.0661 58.8966 54.5026 58.6343 53.971 58.2027C53.4463 57.7766 53.0746 57.2795 52.8562 56.7114C52.639 56.1554 52.5799 55.5772 52.679 54.9766C52.7847 54.3815 53.0488 53.8256 53.4711 53.3089ZM54.1069 53.8252C53.7943 54.2077 53.6014 54.6149 53.5283 55.0467C53.4619 55.484 53.5149 55.9122 53.6873 56.3313C53.8609 56.7625 54.1529 57.1447 54.5633 57.478C54.9805 57.8167 55.4151 58.0245 55.8672 58.1013C56.3138 58.1848 56.7418 58.1472 57.1513 57.9885C57.5676 57.8353 57.9293 57.5708 58.2364 57.195C58.5435 56.8192 58.7303 56.4127 58.7966 55.9754C58.8698 55.5435 58.8229 55.1147 58.656 54.6889C58.4891 54.2631 58.1971 53.8809 57.7799 53.5422C57.3695 53.2089 56.9349 53.0012 56.4761 52.9189C56.024 52.8421 55.5899 52.8803 55.1736 53.0335C54.7641 53.1922 54.4085 53.4561 54.1069 53.8252Z" fill="black"/>
<path d="M47.4506 58.7618C47.9413 58.4353 48.4598 58.2516 49.0061 58.2108C49.5573 58.1771 50.0942 58.2935 50.6168 58.5599C51.1371 58.8383 51.6046 59.2871 52.0194 59.9064C52.4341 60.5257 52.6684 61.1245 52.722 61.703C52.7805 62.2887 52.6861 62.8252 52.4388 63.3125C52.1915 63.7998 51.8189 64.2091 51.321 64.5404C50.7799 64.9005 50.2145 65.0998 49.6248 65.1382C49.0328 65.1887 48.467 65.0759 47.9275 64.7999C47.3928 64.5311 46.9349 64.1123 46.5539 63.5434C46.1681 62.9674 45.9531 62.3817 45.9091 61.7864C45.865 61.1911 45.9774 60.627 46.2464 60.0941C46.5081 59.566 46.9095 59.1219 47.4506 58.7618ZM49.0163 54.7686L54.2178 62.5346L53.4819 63.0244L52.3388 61.3178L51.655 60.1333L50.7799 59.0604L48.2479 55.28L49.0163 54.7686ZM47.9605 59.4063C47.5565 59.6751 47.256 60.0052 47.0591 60.3965C46.867 60.795 46.7881 61.2222 46.8224 61.6783C46.8615 62.1416 47.0281 62.5928 47.3223 63.0321C47.6165 63.4713 47.9683 63.7941 48.3778 64.0005C48.7872 64.2069 49.2134 64.2981 49.6563 64.2741C50.0991 64.25 50.5226 64.1036 50.9266 63.8347C51.3307 63.5658 51.6323 63.2298 51.8316 62.8265C52.0237 62.428 52.1026 62.0007 52.0683 61.5446C52.0269 61.0934 51.859 60.6481 51.5648 60.2089C51.2706 59.7696 50.92 59.4408 50.5129 59.2224C50.1035 59.016 49.6773 58.9248 49.2345 58.9489C48.7892 58.9849 48.3646 59.1374 47.9605 59.4063Z" fill="black"/>
<path d="M38.6036 69.3223C38.0555 69.4071 37.5592 69.3743 37.1147 69.2238C36.663 69.0832 36.2882 68.8168 35.9903 68.4244C35.6838 68.0333 35.4798 67.5124 35.3785 66.8616L34.7683 62.9438L35.6804 62.8026L36.2766 66.6305C36.3873 67.3413 36.6505 67.8486 37.0663 68.1526C37.4748 68.4665 38.0002 68.5738 38.6426 68.4744C39.1222 68.4001 39.5265 68.2367 39.8556 67.9841C40.1774 67.7414 40.4081 67.4206 40.5477 67.0219C40.6801 66.6331 40.7063 66.1818 40.6263 65.668L40.0741 62.1227L40.9863 61.9816L42.0366 68.7253L41.163 68.8605L40.8749 67.0108L41.0702 67.3357C40.9322 67.857 40.6489 68.291 40.2205 68.638C39.7935 68.9935 39.2545 69.2216 38.6036 69.3223Z" fill="black"/>
<path d="M30.7224 62.4809C31.3741 62.5766 31.9399 62.8087 32.4199 63.177C32.89 63.5527 33.237 64.0198 33.4611 64.5783C33.6838 65.1453 33.7458 65.7632 33.6469 66.432C33.5467 67.1093 33.3086 67.6831 32.9324 68.1534C32.5562 68.6237 32.0893 68.9668 31.5317 69.1827C30.9741 69.3986 30.3652 69.4581 29.705 69.3611C29.0362 69.2628 28.4661 69.0301 27.9947 68.663C27.5148 68.2947 27.167 67.8319 26.9516 67.2746C26.7275 66.7161 26.6656 66.0982 26.7658 65.4209C26.8647 64.7522 27.1028 64.1784 27.4803 63.6995C27.8479 63.228 28.3154 62.8806 28.8828 62.6573C29.449 62.4427 30.0622 62.3839 30.7224 62.4809ZM30.6026 63.2911C30.1139 63.2193 29.665 63.2628 29.256 63.4217C28.8458 63.5892 28.5043 63.8544 28.2316 64.2172C27.9491 64.5874 27.7692 65.034 27.6918 65.557C27.6132 66.0886 27.6562 66.5679 27.8208 66.995C27.9769 67.4209 28.2277 67.7687 28.5733 68.0385C28.9176 68.3168 29.3299 68.4913 29.81 68.5618C30.2902 68.6324 30.7354 68.5839 31.1457 68.4165C31.5546 68.2576 31.8998 67.9973 32.181 67.6357C32.4623 67.274 32.6422 66.8275 32.7208 66.2959C32.7982 65.7729 32.7552 65.2936 32.5918 64.8579C32.4272 64.4307 32.1727 64.078 31.8284 63.7997C31.4828 63.5299 31.0742 63.3604 30.6026 63.2911Z" fill="black"/>
<path d="M25.0311 61.3169L24.0352 68.5363L23.2575 68.1161L24.2232 61.4419L24.5778 61.6335L19.4374 66.0521L18.7397 65.6752L19.6712 58.9825L20.0257 59.1741L14.9082 63.6051L14.1647 63.2034L19.7013 58.4373L20.4676 58.8513L19.6362 65.1695L19.396 65.0398L24.2648 60.9029L25.0311 61.3169Z" fill="black"/>
<path d="M14.1091 52.7163C14.4395 53.1725 14.6888 53.6498 14.8571 54.148C15.0182 54.6513 15.0842 55.0896 15.055 55.463L14.22 55.5512C14.2262 55.2051 14.1655 54.8111 14.038 54.369C13.9034 53.932 13.6963 53.5204 13.4167 53.1344C13.0355 52.6079 12.6801 52.2871 12.3505 52.1719C12.014 52.0617 11.7085 52.1053 11.4341 52.3027C11.2301 52.4495 11.1201 52.6301 11.1041 52.8445C11.076 53.0569 11.1101 53.2886 11.2063 53.5397C11.2955 53.7958 11.413 54.0689 11.5589 54.359C11.7048 54.6491 11.8436 54.9442 11.9754 55.2444C12.1022 55.5376 12.189 55.8275 12.236 56.114C12.2759 56.4055 12.2492 56.6863 12.1559 56.9564C12.0574 57.2194 11.8499 57.4648 11.5333 57.6926C11.2308 57.9102 10.899 58.0209 10.5378 58.0245C10.1766 58.0281 9.81227 57.9166 9.44477 57.6899C9.06516 57.4612 8.70506 57.1117 8.36448 56.6414C8.10523 56.2834 7.89522 55.89 7.73446 55.4612C7.56667 55.0374 7.47628 54.654 7.4633 54.311L8.30116 54.2046C8.31023 54.5718 8.38127 54.921 8.51425 55.2524C8.6402 55.5889 8.80484 55.8975 9.00817 56.1783C9.36909 56.6766 9.7239 56.9819 10.0726 57.094C10.4092 57.2042 10.7111 57.1631 10.9785 56.9707C11.1895 56.8189 11.3091 56.6367 11.3372 56.4243C11.3602 56.2049 11.3306 55.9646 11.2485 55.7034C11.1542 55.4403 11.0367 55.1672 10.8959 54.8841C10.75 54.594 10.6172 54.2998 10.4976 54.0016C10.3657 53.7014 10.2764 53.408 10.2294 53.1215C10.1703 52.8331 10.19 52.5573 10.2884 52.2943C10.3747 52.0293 10.5691 51.788 10.8716 51.5704C11.1952 51.3375 11.5427 51.2263 11.9141 51.2367C12.2733 51.2452 12.6443 51.3733 13.0271 51.621C13.3977 51.8669 13.7584 52.2319 14.1091 52.7163Z" fill="black"/>
<path d="M4.16247 48.7561C3.96902 48.2362 3.90135 47.7438 3.95948 47.2788C4.00645 46.8087 4.19236 46.3888 4.51718 46.0192C4.83898 45.6415 5.30878 45.3384 5.92657 45.11L9.64549 43.7349L9.96742 44.6L6.33384 45.9435C5.65915 46.193 5.21458 46.5514 5.00013 47.0188C4.77452 47.481 4.77508 48.0167 5.00178 48.6259C5.17106 49.0808 5.41265 49.4442 5.72657 49.7162C6.02934 49.9831 6.39026 50.1454 6.80932 50.2029C7.21723 50.2554 7.66505 50.1915 8.15278 50.0111L11.5181 48.7668L11.84 49.6318L2.79267 52.9771L2.47074 52.112L6.87249 50.4845L6.60675 50.7768C6.06784 50.7451 5.5852 50.5539 5.15882 50.2034C4.72432 49.8558 4.3922 49.3734 4.16247 48.7561Z" fill="black"/>
<path d="M9.30905 39.8036C9.34473 40.4613 9.22977 41.0621 8.96416 41.6058C8.68944 42.1414 8.30067 42.5746 7.79785 42.9055C7.28638 43.2368 6.69314 43.4207 6.01812 43.457C5.33444 43.4939 4.72477 43.3749 4.18909 43.1C3.65341 42.8251 3.22437 42.4359 2.90196 41.9326C2.57956 41.4292 2.40028 40.8443 2.36413 40.178C2.32751 39.5029 2.44224 38.8979 2.70831 38.3628C2.97391 37.819 3.35835 37.3861 3.86164 37.0638C4.36445 36.733 4.9577 36.5491 5.64137 36.5123C6.31639 36.4759 6.92607 36.5949 7.4704 36.8693C8.00561 37.1356 8.43898 37.5245 8.77051 38.0361C9.09339 38.5481 9.2729 39.1373 9.30905 39.8036ZM8.49124 39.8477C8.46448 39.3544 8.33259 38.9232 8.09558 38.5541C7.84992 38.1855 7.52217 37.9037 7.11235 37.7088C6.6934 37.5057 6.21997 37.4184 5.69207 37.4469C5.15552 37.4758 4.6943 37.6135 4.30842 37.86C3.92207 38.0978 3.63104 38.4129 3.43535 38.8053C3.231 39.1982 3.14197 39.637 3.16826 40.1216C3.19455 40.6062 3.33052 41.0328 3.57619 41.4015C3.81319 41.7706 4.13685 42.0569 4.54714 42.2605C4.95744 42.464 5.43086 42.5513 5.96742 42.5224C6.49532 42.494 6.95654 42.3563 7.35107 42.1094C7.73696 41.8629 8.03207 41.5432 8.23642 41.1503C8.43212 40.7579 8.51706 40.3237 8.49124 39.8477Z" fill="black"/>
<path d="M10.0741 31.7089C9.93033 32.2805 9.66999 32.7648 9.29307 33.1619C8.90773 33.557 8.43215 33.8312 7.8663 33.9846C7.29417 34.1274 6.64655 34.1085 5.92346 33.9278C5.20036 33.7471 4.6246 33.4603 4.19617 33.0674C3.75934 32.6724 3.46873 32.2111 3.32435 31.6837C3.17998 31.1563 3.18072 30.6027 3.32659 30.0227C3.48515 29.3923 3.76973 28.8649 4.18033 28.4405C4.58464 28.0055 5.07919 27.7093 5.66396 27.5517C6.24032 27.392 6.86062 27.3951 7.52486 27.5611C8.19751 27.7292 8.75014 28.0192 9.18274 28.431C9.61535 28.8429 9.91117 29.3367 10.0702 29.9124C10.2313 30.4797 10.2326 31.0786 10.0741 31.7089ZM11.5984 35.7212L2.53029 33.4551L2.74592 32.5978L4.73864 33.0957L6.04072 33.5149L7.40931 33.723L11.8236 34.8261L11.5984 35.7212ZM9.26367 31.5734C9.38205 31.1027 9.38266 30.6562 9.26547 30.2339C9.13988 29.8094 8.91118 29.4396 8.57938 29.1244C8.23916 28.8072 7.81261 28.5844 7.29971 28.4563C6.78682 28.3281 6.30951 28.3249 5.86777 28.4468C5.42603 28.5687 5.04935 28.7872 4.73772 29.1024C4.42609 29.4176 4.21108 29.8105 4.09269 30.2812C3.9743 30.7518 3.97685 31.2036 4.10033 31.6365C4.22592 32.0609 4.45462 32.4307 4.78642 32.7459C5.12034 33.0527 5.54375 33.2701 6.05664 33.3983C6.56954 33.5265 7.05 33.5349 7.49803 33.4235C7.93977 33.3017 8.31645 33.0831 8.62808 32.768C8.93342 32.4423 9.14528 32.0441 9.26367 31.5734Z" fill="black"/>
<path d="M9.49727 17.9983C9.8467 17.5676 10.2368 17.2587 10.6676 17.0716C11.097 16.8723 11.5542 16.8177 12.039 16.9079C12.5293 16.9914 13.0308 17.2398 13.5437 17.6531L16.6308 20.1413L16.0493 20.8581L13.033 18.427C12.473 17.9757 11.9366 17.7771 11.4238 17.8314C10.9098 17.8735 10.4481 18.1469 10.0386 18.6517C9.73284 19.0286 9.54291 19.421 9.46879 19.8287C9.39339 20.2243 9.43798 20.6165 9.60256 21.0051C9.76586 21.3816 10.0499 21.733 10.4548 22.0593L13.2484 24.3109L12.6669 25.0277L7.35301 20.7448L7.90992 20.0583L9.36745 21.233L9.00408 21.1238C8.75595 20.6456 8.67406 20.1343 8.75842 19.5901C8.83604 19.0405 9.08232 18.5099 9.49727 17.9983Z" fill="black"/>
<path d="M19.8282 17.8418C19.2812 18.2087 18.7057 18.4173 18.1018 18.4676C17.5002 18.5058 16.928 18.3939 16.3851 18.1319C15.8374 17.8627 15.3744 17.448 14.9962 16.8877C14.6131 16.3203 14.402 15.7366 14.363 15.1366C14.3239 14.5367 14.4379 13.9697 14.7049 13.4359C14.9719 12.902 15.3824 12.4492 15.9367 12.0774C16.4981 11.7009 17.0771 11.4899 17.6739 11.4444C18.2778 11.3942 18.8476 11.5024 19.3832 11.7693C19.9261 12.0313 20.3891 12.446 20.7722 13.0135C21.1504 13.5738 21.3615 14.1575 21.4054 14.7646C21.4516 15.3597 21.3401 15.9302 21.0708 16.4761C20.7966 17.0148 20.3824 17.4701 19.8282 17.8418ZM19.3699 17.163C19.7802 16.8878 20.0831 16.5542 20.2785 16.1622C20.4691 15.7631 20.5429 15.3379 20.4997 14.8868C20.459 14.4237 20.2907 13.973 19.9949 13.5349C19.6942 13.0895 19.3388 12.7644 18.9286 12.5595C18.5256 12.3498 18.1051 12.2613 17.6672 12.2942C17.2244 12.3198 16.8015 12.4679 16.3984 12.7382C15.9954 13.0086 15.6985 13.3433 15.5079 13.7425C15.3125 14.1345 15.2327 14.5585 15.2686 15.0144C15.3046 15.4703 15.4729 15.921 15.7735 16.3663C16.0693 16.8045 16.4248 17.1296 16.8398 17.3417C17.25 17.5466 17.6765 17.6362 18.1193 17.6106C18.5572 17.5777 18.9741 17.4285 19.3699 17.163Z" fill="black"/>
<path d="M24.9337 14.8097L20.8175 8.78344L21.6767 8.57562L25.4486 14.1769L25.0569 14.2716L25.897 7.55489L26.6678 7.36846L30.4776 12.9606L30.0859 13.0553L30.9008 6.34467L31.7221 6.14602L30.8219 13.3855L29.9753 13.5903L26.3431 8.3431L26.6085 8.27893L25.7803 14.6049L24.9337 14.8097Z" fill="black"/>
<path d="M38.7915 13.8561C38.2407 13.7383 37.7359 13.5505 37.2771 13.2929C36.8203 13.0268 36.4775 12.7452 36.2489 12.4481L36.8089 11.8235C37.0363 12.0848 37.3455 12.3371 37.7364 12.5802C38.1292 12.8149 38.5586 12.9821 39.0247 13.0818C39.6603 13.2177 40.139 13.2182 40.4606 13.0831C40.784 12.9396 40.9813 12.7026 41.0525 12.3722C41.1054 12.1265 41.0659 11.9186 40.9341 11.7486C40.8125 11.572 40.6319 11.4226 40.3923 11.3004C40.1544 11.1698 39.8842 11.0455 39.5816 10.9276C39.2789 10.8097 38.9781 10.6833 38.6792 10.5484C38.3886 10.4154 38.1299 10.2582 37.9031 10.0767C37.678 9.88674 37.5096 9.66017 37.3978 9.39696C37.2945 9.13558 37.2839 8.81425 37.366 8.43298C37.4444 8.06867 37.6163 7.76422 37.8817 7.51966C38.1472 7.2751 38.4921 7.11403 38.9166 7.03644C39.3514 6.95218 39.8527 6.97079 40.4206 7.09224C40.8528 7.18469 41.2722 7.33645 41.6789 7.54751C42.0874 7.75011 42.4115 7.97451 42.651 8.22073L42.101 8.86084C41.8481 8.59405 41.5613 8.38204 41.2406 8.22481C40.9216 8.0591 40.5927 7.93999 40.2537 7.86748C39.6519 7.73877 39.1842 7.74951 38.8505 7.89969C38.527 8.04321 38.3306 8.27595 38.2613 8.59791C38.2066 8.85208 38.24 9.0675 38.3615 9.24417C38.4916 9.42264 38.6746 9.58143 38.9106 9.72054C39.1569 9.85299 39.4271 9.97726 39.7213 10.0934C40.0239 10.2113 40.3196 10.341 40.6082 10.4825C40.9072 10.6173 41.1702 10.7755 41.397 10.957C41.6342 11.1318 41.8045 11.3499 41.9078 11.6113C42.0214 11.866 42.039 12.1755 41.9605 12.5398C41.8766 12.9296 41.6935 13.2449 41.4111 13.4858C41.1391 13.7201 40.7781 13.8733 40.3281 13.9455C39.8885 14.011 39.3763 13.9812 38.7915 13.8561Z" fill="black"/>
<path d="M48.9315 10.1516C49.4233 10.4081 49.8034 10.7284 50.0716 11.1125C50.3515 11.493 50.4945 11.9292 50.5006 12.4211C50.5145 12.917 50.3684 13.4566 50.0623 14.0398L48.2199 17.5508L47.4015 17.1241L49.2016 13.6937C49.5358 13.0567 49.6261 12.493 49.4725 12.0024C49.3306 11.5081 48.9714 11.1107 48.3951 10.8102C47.9647 10.5859 47.5418 10.4778 47.1264 10.486C46.7228 10.4906 46.346 10.6118 45.9961 10.8496C45.6578 11.0838 45.3679 11.4311 45.1263 11.8916L43.4591 15.0687L42.6407 14.642L47.1228 6.10056L47.9412 6.52727L45.7606 10.6829L45.7623 10.2879C46.184 9.95065 46.6706 9.76942 47.2221 9.74421C47.7777 9.71132 48.3475 9.84713 48.9315 10.1516Z" fill="black"/>
<path d="M51.1599 20.2557C50.6917 19.7924 50.3737 19.2705 50.2058 18.6898C50.0503 18.1092 50.0482 17.5279 50.1995 16.9461C50.357 16.3582 50.6742 15.8247 51.1512 15.3458C51.6344 14.8607 52.1673 14.5406 52.7498 14.3855C53.3324 14.2304 53.9125 14.2314 54.49 14.3883C55.0676 14.5453 55.5935 14.8585 56.0679 15.3279C56.5484 15.8034 56.8695 16.3284 57.0312 16.9029C57.199 17.4836 57.2042 18.0617 57.0467 18.6374C56.8953 19.2192 56.5781 19.7527 56.0949 20.2378C55.6179 20.7168 55.085 21.0369 54.4963 21.1981C53.9199 21.3592 53.3368 21.3614 52.747 21.2044C52.1633 21.0414 51.6342 20.7251 51.1599 20.2557ZM51.7378 19.6754C52.089 20.0229 52.4765 20.254 52.9005 20.3687C53.3305 20.4773 53.7632 20.4665 54.1986 20.3365C54.6462 20.2064 55.0565 19.954 55.4296 19.5794C55.8088 19.1987 56.059 18.7879 56.1801 18.3469C56.3075 17.912 56.312 17.4837 56.1939 17.062C56.0818 16.6341 55.8533 16.2495 55.5083 15.9081C55.1634 15.5667 54.7758 15.3418 54.3458 15.2332C53.9218 15.1185 53.4891 15.1231 53.0476 15.2471C52.6061 15.3711 52.1957 15.6234 51.8166 16.0041C51.4435 16.3787 51.1933 16.7895 51.066 17.2367C50.9449 17.6776 50.9403 18.112 51.0524 18.5399C51.1705 18.9617 51.399 19.3402 51.7378 19.6754Z" fill="black"/>
<path d="M55.9845 26.6486C55.7049 26.1298 55.5704 25.5972 55.5811 25.0508C55.5994 24.5003 55.7661 23.9784 56.0812 23.4853C56.408 22.9957 56.8999 22.5749 57.557 22.223C58.214 21.8712 58.8337 21.6966 59.4161 21.6993C60.0061 21.698 60.5326 21.8437 60.9956 22.1364C61.4586 22.4292 61.8319 22.8388 62.1157 23.3652C62.4241 23.9374 62.5697 24.5181 62.5526 25.1073C62.5472 25.7 62.3814 26.2509 62.0551 26.7599C61.7365 27.2647 61.2755 27.6788 60.6719 28.002C60.0607 28.3293 59.456 28.4861 58.8578 28.4722C58.2595 28.4583 57.7072 28.292 57.2007 27.9734C56.6983 27.6624 56.2929 27.2208 55.9845 26.6486ZM52.147 24.7073L60.3868 20.2947L60.8062 21.0728L58.9955 22.0425L57.7491 22.6068L56.596 23.3718L52.5849 25.5198L52.147 24.7073ZM56.6757 26.2047C56.9059 26.632 57.207 26.9623 57.579 27.1957C57.9586 27.425 58.3775 27.5447 58.8359 27.5548C59.3019 27.5609 59.7679 27.4391 60.2339 27.1895C60.7 26.94 61.0553 26.6219 61.2998 26.2353C61.5443 25.8488 61.6755 25.4344 61.6932 24.9924C61.7109 24.5503 61.6046 24.1157 61.3743 23.6885C61.144 23.2612 60.8371 22.9292 60.4534 22.6922C60.0738 22.4629 59.6548 22.3432 59.1965 22.3331C58.7422 22.3306 58.2821 22.4541 57.816 22.7037C57.35 22.9533 56.9888 23.2696 56.7325 23.6526C56.488 24.0391 56.3569 24.4535 56.3392 24.8955C56.3332 25.3411 56.4454 25.7775 56.6757 26.2047Z" fill="black"/>
</symbol>
</defs>
</svg>
